<svg width="32.000000" height="28.000000" viewBox="0 0 32 28" fill="none" xmlns="http://www.w3.org/2000/svg" xmlns:xlink="http://www.w3.org/1999/xlink">
	<desc>
			Created with Pixso.
	</desc>
	<defs/>
	<path id="Vector" d="M9.63 3.21C7.94 4.63 7 6.55 7 8.55C7 10.34 7.45 11.51 8.68 12.81L16 19.89L23.31 12.81C24.54 11.51 25 10.34 25 8.55C25 6.55 24.05 4.63 22.36 3.21C20.67 1.79 18.38 1 16 1C13.61 1 11.32 1.79 9.63 3.21Z" stroke="#FF7A00" stroke-opacity="1.000000" stroke-width="2.000000" stroke-linejoin="round"/>
	<path id="Vector" d="M5.5 17.55C2.72 18.47 1 19.74 1 21.15C1 23.94 7.71 26.19 16 26.19C24.28 26.19 31 23.94 31 21.15C31 19.74 29.27 18.47 26.5 17.55" stroke="#FF7A00" stroke-opacity="1.000000" stroke-width="2.000000" stroke-linejoin="round" stroke-linecap="round"/>
	<path id="Vector" d="M16 9.81C15.17 9.81 14.5 9.25 14.5 8.55C14.5 7.86 15.17 7.29 16 7.29C16.82 7.29 17.5 7.86 17.5 8.55C17.5 9.25 16.82 9.81 16 9.81Z" stroke="#FF7A00" stroke-opacity="1.000000" stroke-width="2.000000" stroke-linejoin="round"/>
</svg>
