<svg width="25.000000" height="25.000000" viewBox="0 0 25 25" fill="none" xmlns="http://www.w3.org/2000/svg" xmlns:xlink="http://www.w3.org/1999/xlink">
	<desc>
			Created with Pixso.
	</desc>
	<defs/>
	<path id="Vector" d="M12.5 0C5.59 0 0 5.59 0 12.5C0 19.4 5.59 25 12.5 25C19.4 25 25 19.4 25 12.5C25 5.59 19.4 0 12.5 0ZM17.58 10.23C17.58 10.34 17.59 10.45 17.59 10.55C17.59 13.81 15.11 17.56 10.58 17.56C9.24 17.56 7.93 17.18 6.81 16.45C7 16.48 7.2 16.48 7.4 16.48C8.55 16.48 9.61 16.09 10.45 15.43C9.94 15.42 9.44 15.25 9.03 14.94C8.62 14.64 8.31 14.21 8.15 13.72C8.52 13.79 8.9 13.78 9.26 13.68C8.71 13.57 8.21 13.27 7.85 12.83C7.49 12.39 7.29 11.83 7.29 11.27L7.29 11.24C7.62 11.42 8 11.53 8.41 11.54C7.88 11.2 7.51 10.66 7.37 10.05C7.23 9.44 7.33 8.8 7.64 8.26C8.26 9.02 9.03 9.64 9.91 10.08C10.78 10.52 11.74 10.78 12.72 10.83C12.59 10.3 12.65 9.75 12.87 9.25C13.09 8.76 13.47 8.35 13.95 8.09C14.43 7.84 14.98 7.75 15.52 7.84C16.05 7.92 16.54 8.19 16.91 8.58C17.46 8.47 17.99 8.27 18.48 7.99C18.29 8.56 17.91 9.04 17.39 9.35C17.88 9.29 18.36 9.16 18.81 8.96C18.48 9.45 18.06 9.89 17.58 10.23Z" fill="#FFFFFF" fill-opacity="1.000000" fill-rule="nonzero"/>
</svg>
