<svg width="25.000000" height="25.000000" viewBox="0 0 25 25" fill="none" xmlns="http://www.w3.org/2000/svg" xmlns:xlink="http://www.w3.org/1999/xlink">
	<desc>
			Created with Pixso.
	</desc>
	<defs/>
	<path id="Vector" d="M12.5 0C5.59 0 0 5.59 0 12.5C0 19.4 5.59 25 12.5 25C19.4 25 25 19.4 25 12.5C25 5.59 19.4 0 12.5 0ZM17.3 14.1C17.3 14.1 18.41 15.19 18.68 15.7C18.69 15.71 18.69 15.72 18.69 15.72C18.8 15.91 18.83 16.05 18.78 16.16C18.69 16.34 18.37 16.43 18.27 16.44L16.31 16.44C16.18 16.44 15.89 16.4 15.55 16.16C15.29 15.98 15.02 15.68 14.77 15.38C14.39 14.94 14.06 14.56 13.73 14.56C13.69 14.56 13.65 14.57 13.61 14.58C13.36 14.66 13.04 15.02 13.04 15.97C13.04 16.26 12.8 16.44 12.64 16.44L11.75 16.44C11.44 16.44 9.85 16.33 8.45 14.85C6.73 13.03 5.18 9.39 5.16 9.35C5.07 9.12 5.27 8.99 5.49 8.99L7.46 8.99C7.72 8.99 7.81 9.15 7.87 9.29C7.94 9.46 8.2 10.11 8.62 10.85C9.31 12.06 9.73 12.55 10.06 12.55C10.13 12.55 10.19 12.53 10.25 12.5C10.69 12.26 10.6 10.69 10.58 10.36C10.58 10.3 10.58 9.66 10.36 9.35C10.2 9.13 9.92 9.05 9.75 9.02C9.82 8.92 9.91 8.85 10.01 8.8C10.32 8.64 10.86 8.62 11.4 8.62L11.7 8.62C12.29 8.63 12.44 8.67 12.65 8.72C13.08 8.82 13.09 9.1 13.05 10.05C13.04 10.32 13.03 10.63 13.03 10.98C13.03 11.06 13.02 11.15 13.02 11.23C13.01 11.72 13 12.27 13.34 12.49C13.38 12.52 13.43 12.53 13.48 12.53C13.6 12.53 13.96 12.53 14.93 10.88C15.22 10.34 15.48 9.79 15.7 9.22C15.72 9.18 15.78 9.08 15.85 9.04C15.9 9.01 15.95 9 16.01 9L18.33 9C18.58 9 18.75 9.04 18.78 9.14C18.84 9.29 18.77 9.76 17.72 11.2L17.24 11.82C16.28 13.08 16.28 13.14 17.3 14.1Z" fill="#FFFFFF" fill-opacity="1.000000" fill-rule="nonzero"/>
</svg>
