<svg width="25.000000" height="25.000000" viewBox="0 0 25 25" fill="none" xmlns="http://www.w3.org/2000/svg" xmlns:xlink="http://www.w3.org/1999/xlink">
	<desc>
			Created with Pixso.
	</desc>
	<defs/>
	<path id="Vector" d="M14.58 12.28L11.66 10.91C11.4 10.79 11.19 10.93 11.19 11.21L11.19 13.78C11.19 14.06 11.4 14.2 11.66 14.08L14.58 12.71C14.84 12.59 14.84 12.4 14.58 12.28ZM12.5 0C5.59 0 0 5.59 0 12.5C0 19.4 5.59 25 12.5 25C19.4 25 25 19.4 25 12.5C25 5.59 19.4 0 12.5 0ZM12.5 17.57C6.1 17.57 5.98 17 5.98 12.5C5.98 7.99 6.1 7.42 12.5 7.42C18.89 7.42 19.01 7.99 19.01 12.5C19.01 17 18.89 17.57 12.5 17.57Z" fill="#FFFFFF" fill-opacity="1.000000" fill-rule="nonzero"/>
</svg>
